<?xml version="1.0" standalone="no"?>
<!DOCTYPE svg PUBLIC "-//W3C//DTD SVG 20010904//EN"
 "http://www.w3.org/TR/2001/REC-SVG-20010904/DTD/svg10.dtd">
<svg version="1.0" xmlns="http://www.w3.org/2000/svg"
 width="1041.000000pt" height="1041.000000pt" viewBox="0 0 1041.000000 1041.000000"
 preserveAspectRatio="xMidYMid meet">
<metadata>
Created by potrace 1.11, written by Peter Selinger 2001-2013
</metadata>
<g transform="translate(0.000000,1041.000000) scale(0.100000,-0.100000)"
fill="#000000" stroke="none">
<path d="M0 5205 l0 -5205 5205 0 5205 0 0 5205 0 5205 -5205 0 -5205 0 0
-5205z m4660 2035 c22 -44 27 -62 18 -64 -7 -3 -62 -19 -123 -36 -257 -75
-491 -190 -698 -343 -113 -84 -246 -196 -258 -219 -12 -23 -24 -28 236 102
526 264 934 360 1524 360 610 0 1058 -113 1619 -407 79 -41 145 -73 148 -70 5
5 -88 93 -180 170 -207 172 -539 340 -828 418 -49 13 -88 27 -88 30 0 4 12 32
26 63 29 65 29 65 162 41 329 -57 704 -223 996 -439 89 -66 93 -71 196 -281
267 -547 454 -1228 555 -2019 28 -221 52 -558 42 -597 -8 -31 -171 -199 -272
-280 -334 -269 -782 -449 -1210 -484 l-80 -7 -92 134 c-50 73 -92 137 -93 142
-1 5 43 28 97 51 292 123 565 310 790 541 34 34 67 73 73 84 10 20 10 21 -8
11 -11 -6 -76 -48 -145 -94 -331 -221 -735 -375 -1142 -436 -206 -31 -346 -41
-575 -41 -312 0 -572 30 -830 95 -358 90 -618 207 -928 418 -57 38 -106 67
-109 63 -12 -11 247 -259 355 -340 173 -130 363 -240 532 -307 47 -18 87 -35
89 -36 2 -1 -14 -29 -36 -60 -22 -32 -66 -96 -98 -142 l-58 -83 -76 6 c-250
22 -564 108 -785 217 -252 123 -392 223 -582 414 l-131 132 3 49 c38 511 91
890 179 1289 118 533 266 962 467 1358 70 138 71 139 149 197 293 218 666 383
994 441 149 26 140 28 175 -41z"/>
<path d="M4487 5490 c-150 -38 -276 -177 -322 -355 -18 -71 -21 -223 -4 -292
34 -144 142 -287 256 -341 50 -23 70 -27 153 -27 85 0 101 3 155 29 122 60
227 205 256 354 17 88 7 251 -20 327 -43 119 -137 229 -238 277 -68 32 -170
44 -236 28z"/>
<path d="M6038 5481 c-76 -25 -118 -52 -177 -117 -231 -252 -165 -708 124
-857 55 -28 69 -31 155 -32 88 0 101 3 162 33 124 61 220 195 252 354 20 95
20 153 1 243 -58 278 -292 448 -517 376z"/>
</g>
</svg>
